<svg width="38" height="39" viewBox="0 0 38 39" fill="none" xmlns="http://www.w3.org/2000/svg">
<path fill-rule="evenodd" clip-rule="evenodd" d="M19 13C20.7417 13 22.1667 11.5375 22.1667 9.75C22.1667 7.9625 20.7417 6.5 19 6.5C17.2584 6.5 15.8334 7.9625 15.8334 9.75C15.8334 11.5375 17.2584 13 19 13ZM19 16.25C17.2584 16.25 15.8334 17.7125 15.8334 19.5C15.8334 21.2875 17.2584 22.75 19 22.75C20.7417 22.75 22.1667 21.2875 22.1667 19.5C22.1667 17.7125 20.7417 16.25 19 16.25ZM15.8334 29.25C15.8334 27.4625 17.2584 26 19 26C20.7417 26 22.1667 27.4625 22.1667 29.25C22.1667 31.0375 20.7417 32.5 19 32.5C17.2584 32.5 15.8334 31.0375 15.8334 29.25Z" fill="#49454F"/>
</svg>
