<svg width="14" height="14" viewBox="0 0 14 14" fill="none" xmlns="http://www.w3.org/2000/svg">
<path d="M1.00328 7.584C0.843281 7.584 0.723281 7.496 0.643281 7.32C0.563281 7.128 0.523281 6.896 0.523281 6.624C0.523281 6.352 0.563281 6.128 0.643281 5.952C0.723281 5.76 0.843281 5.664 1.00328 5.664H6.04328V0.623999C6.04328 0.479999 6.13928 0.367999 6.33128 0.287999C6.52328 0.191999 6.74728 0.144 7.00328 0.144C7.25928 0.144 7.48328 0.191999 7.67528 0.287999C7.86728 0.367999 7.96328 0.479999 7.96328 0.623999V5.664H13.0033C13.1473 5.664 13.2593 5.76 13.3393 5.952C13.4353 6.144 13.4833 6.368 13.4833 6.624C13.4833 6.88 13.4353 7.104 13.3393 7.296C13.2593 7.488 13.1473 7.584 13.0033 7.584H7.96328V12.624C7.96328 12.784 7.86728 12.904 7.67528 12.984C7.49928 13.064 7.27528 13.104 7.00328 13.104C6.73128 13.104 6.49928 13.064 6.30728 12.984C6.13128 12.904 6.04328 12.784 6.04328 12.624V7.584H1.00328Z" fill="white"/>
</svg>
